<svg width="24" height="25" viewBox="0 0 24 25" fill="none" xmlns="http://www.w3.org/2000/svg">
<path d="M17.8213 17.5549H15.7963V13.7599C15.7963 12.7849 15.0013 11.9899 14.0263 11.9899C13.0513 11.9899 12.2563 12.7849 12.2563 13.7599V17.5549H10.2313V9.96493H12.2563V10.8799C12.8488 10.3099 13.6513 9.96493 14.5363 9.96493C16.3513 9.96493 17.8213 11.4349 17.8213 13.2499V17.5474V17.5549ZM7.19377 8.44993C6.63127 8.44993 6.18127 7.99993 6.18127 7.43743C6.18127 6.87493 6.63127 6.42493 7.19377 6.42493C7.75627 6.42493 8.20627 6.87493 8.20627 7.43743C8.20627 7.99993 7.75627 8.44993 7.19377 8.44993ZM8.20627 17.5549H6.18127V9.96493H8.20627V17.5549ZM11.7463 0.867432C5.33377 0.867432 0.11377 6.08743 0.11377 12.4999C0.11377 18.9124 5.33377 24.1324 11.7463 24.1324C18.1588 24.1324 23.3788 18.9124 23.3788 12.4999C23.3788 6.08743 18.1663 0.867432 11.7463 0.867432Z" fill="white"/>
</svg>
