<svg width="264" height="44" viewBox="0 0 264 44" fill="none" xmlns="http://www.w3.org/2000/svg">
<g clip-path="url(#clip0_15_1313)">
<path d="M13.8474 17.6701C16.7215 17.6701 18.8066 19.0226 18.8066 21.8967C18.8066 24.802 16.8905 25.8415 15.0309 25.8415C13.2275 25.8978 12.8894 25.3343 12.8894 22.6856V17.6701H13.8474ZM12.8894 11.1331C12.8894 10.4568 12.8894 9.98093 13.1148 9.86196C13.2839 9.7743 13.6784 9.71794 14.411 9.71794C16.1266 9.71794 17.9613 10.5633 17.9613 13.1555C17.9613 15.5224 16.4397 16.6495 14.0165 16.6495H12.8894V11.1205V11.1331ZM7.5295 8.65348V9.44243C9.55825 9.6115 9.78367 9.83691 9.78367 12.88V22.742C9.78367 25.7851 9.55825 26.0105 7.36044 26.1796V26.9685H14.3797C16.4397 26.9685 18.4371 26.6304 19.7646 25.8415C21.3175 24.9085 22.3005 23.5873 22.3005 21.5836C22.3005 18.7659 20.1027 17.213 17.2224 16.8749V16.8186C18.888 16.5055 21.2235 15.2093 21.2235 12.7861C21.2235 11.2959 20.66 10.2502 19.6456 9.57393C18.6313 8.92899 17.5042 8.64722 15.3064 8.64722H7.52324L7.5295 8.65348Z" fill="white"/>
<path d="M27.842 17.0001C27.1908 17.5637 26.4582 17.9018 25.951 17.9018C25.2184 17.9018 24.2604 17.2256 24.2604 15.7604C24.2604 14.746 24.6799 14.1511 25.6129 13.6439C26.1201 13.3622 27.2472 12.7986 27.842 12.5169V17.0001ZM32.5194 17.5637C32.15 17.7327 31.7304 17.9018 31.3923 17.9018C30.9978 17.9018 30.6034 17.451 30.6034 16.3239V10.294C30.6034 9.30468 30.4907 8.37797 29.4199 7.5577C28.8564 7.13818 27.9798 6.88145 26.9967 6.88145C24.9116 7.27593 23.1646 8.32161 22.288 8.94151C21.6932 9.39234 21.4114 9.84317 21.4114 10.2377C21.4114 10.9139 22.2254 11.4774 22.8515 11.4774C23.3024 11.4774 23.6718 11.252 23.7532 10.8575C23.9786 9.78682 24.2604 9.13562 24.7112 8.77245C24.9617 8.52198 25.3624 8.29031 25.8133 8.29031C27.1094 8.29031 27.842 9.05422 27.842 10.7135V11.4774C26.9404 12.041 24.6862 12.8612 23.3024 13.4248C21.8372 14.0447 21.186 15.0027 21.186 16.3865C21.186 18.0208 22.5134 19.7928 24.6236 19.7928C25.1871 19.7928 26.7087 18.7221 27.8921 18.0208C28.0361 18.7221 28.5997 19.7364 29.8958 19.7928L32.8012 18.2712L32.5194 17.5637Z" fill="white"/>
<path d="M27.9485 22.8359C28.656 22.3287 29.445 21.9906 30.2339 21.9906C32.0373 21.9906 33.7029 23.2304 33.7029 26.7557C33.7029 30.3936 31.8432 31.5458 30.547 31.5458C29.5013 31.5458 28.5997 31.0949 27.9547 30.5627V22.8422L27.9485 22.8359ZM27.9485 19.7678C26.1702 20.2749 24.5672 20.7821 23.1271 21.0639V21.7151C24.9868 21.8842 25.0431 21.9405 25.0431 23.4621V36.3171C25.0431 37.8136 24.8741 37.9826 23.1271 38.1517V38.9407H30.3717V38.1517C28.1175 37.9826 27.9485 37.8136 27.9485 36.3171V32.51C28.368 32.7355 29.0443 32.9609 29.8958 32.9609C33.6152 32.1719 36.7147 29.5483 36.7147 25.3468C36.7147 22.8422 35.1054 20.0495 31.8933 20.0495C31.4424 20.0495 31.048 20.1059 30.7662 20.2186L27.9485 21.7402V19.7678Z" fill="white"/>
<path d="M35.1117 14.2137V15.0027C37.2532 15.1718 37.4786 15.3972 37.4786 18.4403V28.3085C37.4786 31.3516 37.2532 31.5771 34.999 31.7461V32.5351H42.9512V31.7461C40.8097 31.5771 40.5843 31.3516 40.5843 28.3085V24.5328H41.486C42.3313 24.5328 42.6694 24.8146 43.1202 25.6035C43.9405 27.0687 44.8672 28.8721 45.7689 30.1682C46.8709 31.7461 47.8289 32.5351 50.8971 32.7605L52.0805 32.8168L52.1932 32.0842C51.373 31.8901 50.9221 31.4643 50.2459 30.7881C49.7137 30.2246 48.9811 29.2102 47.9041 27.6573C47.0024 26.3925 45.9004 24.4138 45.4495 23.6249C47.735 22.7796 49.2002 21.1202 49.2002 18.7471C49.2002 17.0878 48.4363 15.8981 47.3405 15.1718C46.2135 14.4392 44.7482 14.2137 42.6882 14.2137H35.1054H35.1117ZM40.578 16.2988C40.578 15.3972 40.6344 15.2845 41.9869 15.2845C43.7902 15.2845 45.819 16.2988 45.819 19.2293C45.819 20.5818 45.4245 21.9343 44.2974 22.8359C43.5648 23.3995 42.7759 23.5685 41.6488 23.5685H40.578V16.2926V16.2988Z" fill="white"/>
<path d="M28.8376 42.397C14.1668 42.397 2.27606 33.2614 2.27606 21.9969C2.27606 10.7323 14.1668 1.5967 28.8376 1.5967C43.5084 1.5967 55.3992 10.7323 55.3992 21.9969C55.3992 33.2614 43.5022 42.397 28.8376 42.397ZM48.5928 6.30539C43.3018 2.24164 36.2826 0 28.8376 0C21.3926 0 14.3734 2.24164 9.08237 6.30539C3.6536 10.4693 0.673096 16.0421 0.673096 22.0031C0.673096 27.9641 3.6536 33.5369 9.07611 37.6946C14.3734 41.7584 21.3863 44 28.8313 44C36.2763 44 43.2956 41.7584 48.5866 37.6946C54.0091 33.5307 56.9896 27.9579 56.9896 22.0031C56.9896 16.0484 54.0091 10.4693 48.5866 6.31166" fill="white"/>
<path d="M64.6725 15.8856C64.6725 17.4134 65.0733 17.8517 66.2817 17.8329C67.6405 17.8142 69.0431 16.9563 69.0431 14.8399C69.0431 12.8112 67.7219 11.8469 65.2736 11.8469H64.6663V15.8856H64.6725ZM65.3237 11.0517C67.4589 11.0517 68.3794 10.2126 68.3794 8.47816C68.3794 6.74371 67.3775 5.84204 65.9123 5.84204C65.4302 5.84204 65.0545 5.94849 64.9105 6.07372C64.7414 6.21774 64.6788 6.49324 64.6788 7.038V11.0579H65.33L65.3237 11.0517ZM67.8534 11.346C70.1577 11.6403 71.7669 12.6045 71.7669 14.6333C71.7669 16.0359 70.9904 17.1254 69.8007 17.7703C68.7363 18.3777 67.2085 18.6469 65.4928 18.6469H60.4272V17.9582C62.099 17.8329 62.2681 17.6889 62.2681 15.9294V7.7706C62.2681 5.99232 62.1241 5.86709 60.5712 5.72307V5.05309H66.407C67.9974 5.05309 68.9993 5.25972 69.7569 5.7669C70.5083 6.26783 70.9717 7.15071 70.9717 8.15256C70.9717 10.1375 69.256 10.9765 67.8534 11.2708V11.3522V11.346Z" fill="white"/>
<path d="M76.7886 8.16508H76.7448C76.1187 9.7743 75.5551 11.4086 74.9665 12.9802H78.4605L76.7886 8.16508ZM78.6734 18.6469V17.9769C79.9319 17.7891 80.076 17.5574 79.7629 16.6808C79.5312 15.992 79.1743 15.009 78.7986 14.0009H74.6347C74.3654 14.7522 74.0711 15.5725 73.8207 16.4053C73.4638 17.5324 73.5702 17.7891 75.098 17.9769V18.6469H70.477V17.9769C71.8357 17.8079 72.1113 17.6013 72.8188 15.7979L77.1268 4.97794L78.0472 4.72748C79.3684 8.36545 80.6833 12.1349 82.0421 15.7353C82.7309 17.5762 83.0064 17.8267 84.3464 17.9769V18.6469H78.6734Z" fill="white"/>
<path d="M98.3597 5.7168C97.2327 5.77942 96.7693 6.04866 96.6629 6.99416C96.5815 7.64536 96.4938 8.60338 96.4938 10.4881V18.8598H95.6172L86.8259 8.22769H86.7821V13.1242C86.7821 15.009 86.8635 15.9482 86.9261 16.5743C87.0326 17.5574 87.4458 17.8955 88.9361 17.9769V18.6469H83.8955V17.9769C85.0664 17.8955 85.5674 17.5762 85.655 16.637C85.7364 15.9482 85.8429 15.0027 85.8429 13.1242V8.69104C85.8429 7.24462 85.7991 6.97537 85.4234 6.49323C85.0038 5.96726 84.5467 5.80446 83.6263 5.7168V5.04681H87.2016L95.4669 14.7147H95.5295V10.4881C95.5295 8.62843 95.4231 7.6391 95.3855 7.03799C95.279 6.11754 94.822 5.80446 93.3129 5.7168V5.04681H98.3535V5.7168H98.3597Z" fill="white"/>
<path d="M110.726 15.1091C110.457 16.111 109.912 17.7014 109.555 18.4152C108.992 18.5405 107.126 18.96 105.686 18.96C100.244 18.96 97.9465 15.3408 97.9465 12.0159C97.9465 7.68293 101.271 4.73373 106.149 4.73373C107.846 4.73373 109.349 5.17204 109.919 5.29727C110.106 6.4494 110.25 7.38864 110.376 8.62216L109.662 8.76618C109.036 6.38053 107.545 5.58531 105.686 5.58531C102.486 5.58531 100.745 8.47189 100.745 11.5901C100.745 15.4598 102.899 18.0583 105.874 18.0583C107.758 18.0583 108.992 16.9313 110.038 14.8336L110.726 15.1029V15.1091Z" fill="white"/>
<path d="M117.213 8.16508H117.17C116.543 9.7743 115.98 11.4086 115.391 12.9802H118.885L117.213 8.16508ZM119.098 18.6469V17.9769C120.357 17.7891 120.501 17.5574 120.188 16.6808C119.956 15.992 119.599 15.009 119.223 14.0009H115.059C114.79 14.7522 114.496 15.5725 114.245 16.4053C113.888 17.5324 113.995 17.7891 115.523 17.9769V18.6469H110.902V17.9769C112.26 17.8079 112.536 17.6013 113.244 15.7979L117.551 4.97794L118.472 4.72748C119.793 8.36545 121.108 12.1349 122.467 15.7353C123.156 17.5762 123.431 17.8267 124.771 17.9769V18.6469H119.098Z" fill="white"/>
<path d="M135.647 8.16508H135.604C134.977 9.7743 134.408 11.4086 133.825 12.9802H137.319L135.647 8.16508ZM137.532 18.6469V17.9769C138.791 17.7891 138.935 17.5574 138.622 16.6808C138.39 15.992 138.033 15.009 137.657 14.0009H133.493C133.218 14.7522 132.93 15.5725 132.679 16.4053C132.322 17.5324 132.429 17.7891 133.957 17.9769V18.6469H129.336V17.9769C130.694 17.8079 130.97 17.6013 131.678 15.7979L135.985 4.97794L136.906 4.72748C138.227 8.36545 139.542 12.1349 140.901 15.7353C141.59 17.5762 141.865 17.8267 143.199 17.9769V18.6469H137.532Z" fill="white"/>
<path d="M154.877 12.8926C153.75 13.0804 153.643 13.1868 153.643 14.5268V16.2237C153.643 16.9751 153.662 17.6451 153.787 18.2086C152.51 18.5029 150.713 18.96 149.041 18.96C144.27 18.96 141.176 16.1548 141.176 11.9909C141.176 7.17575 145.046 4.72748 149.36 4.72748C151.076 4.72748 152.685 5.147 153.418 5.33485C153.48 6.04867 153.587 7.17575 153.756 8.70357L153.042 8.84759C152.522 6.44315 150.969 5.54148 148.984 5.54148C146.223 5.54148 143.982 7.84574 143.982 11.6528C143.982 14.771 145.616 18.1397 149.273 18.1397C149.792 18.1397 150.337 18.0583 150.675 17.8455C151.032 17.6388 151.22 17.3195 151.22 16.6119V14.7084C151.22 13.2244 151.095 13.0741 148.959 12.8863V12.2163H154.883V12.8863L154.877 12.8926Z" fill="white"/>
<path d="M159.604 11.9909C160.543 11.9909 161.238 11.8469 161.739 11.4274C162.472 10.82 162.785 9.98094 162.785 8.89769C162.785 6.63726 161.426 5.82326 160.105 5.82326C159.541 5.82326 159.228 5.90466 159.078 6.02989C158.934 6.15512 158.89 6.3868 158.89 6.86894V11.9972H159.604V11.9909ZM167.393 18.8348C167.224 18.8348 166.993 18.816 166.742 18.816C164.482 18.7096 163.668 18.1648 162.766 16.8311C162.159 15.9106 161.533 14.7209 160.925 13.6502C160.568 13.0428 160.211 12.7736 159.379 12.7736H158.896V15.9357C158.896 17.6701 159.084 17.8392 160.694 17.9832V18.6532H154.689V17.9832C156.298 17.8392 156.511 17.6701 156.511 15.9357V7.75182C156.511 6.03615 156.323 5.86709 154.776 5.72307V5.05309H160.38C162.115 5.05309 163.167 5.24093 163.981 5.80447C164.82 6.36801 165.383 7.28846 165.383 8.58461C165.383 10.4067 164.213 11.4524 162.747 12.0598C163.079 12.711 163.899 14.0885 164.526 15.0528C165.258 16.1799 165.697 16.8123 166.16 17.2944C166.642 17.8204 167.043 18.0709 167.519 18.2149L167.393 18.841V18.8348Z" fill="white"/>
<path d="M167.6 18.6469V17.977C169.209 17.8329 169.397 17.7077 169.397 15.9294V7.7706C169.397 5.99232 169.209 5.86709 167.6 5.72307V5.05309H173.605V5.72307C171.996 5.86709 171.827 5.99232 171.827 7.7706V15.9294C171.827 17.7077 171.996 17.8329 173.605 17.977V18.6469H167.6Z" fill="white"/>
<path d="M185.865 15.1091C185.596 16.111 185.051 17.7014 184.694 18.4152C184.131 18.5405 182.265 18.96 180.824 18.96C175.383 18.96 173.085 15.3408 173.085 12.0159C173.085 7.68293 176.41 4.73373 181.288 4.73373C182.985 4.73373 184.488 5.17204 185.057 5.29727C185.245 6.4494 185.395 7.38864 185.514 8.62216L184.801 8.76618C184.174 6.38053 182.684 5.58531 180.824 5.58531C177.625 5.58531 175.884 8.47189 175.884 11.5901C175.884 15.4598 178.038 18.0583 181.012 18.0583C182.897 18.0583 184.131 16.9313 185.176 14.8336L185.865 15.1029V15.1091Z" fill="white"/>
<path d="M189.465 11.4524C189.465 15.153 191.244 18.1272 194.024 18.1272C196.134 18.1272 197.919 16.1799 197.919 12.2914C197.919 8.02106 196.015 5.59784 193.46 5.59784C191.288 5.59784 189.465 7.73303 189.465 11.4587M200.743 11.7029C200.743 16.2237 197.518 18.9663 193.629 18.9663C189.591 18.9663 186.641 15.9545 186.641 11.9345C186.641 8.27153 189.234 4.75879 193.88 4.75879C197.605 4.75879 200.743 7.56397 200.743 11.7029Z" fill="white"/>
<path d="M210.786 15.1968C210.617 16.0108 210.197 18.0646 210.01 18.6469H200.091V17.977C201.888 17.8329 202.076 17.7077 202.076 15.9294V7.7706C202.076 5.99232 201.907 5.86709 200.254 5.72307V5.05309H206.303V5.72307C204.694 5.86709 204.506 5.97354 204.506 7.7706V15.992C204.506 17.0189 204.593 17.4134 205.007 17.6013C205.382 17.7703 205.99 17.8079 206.722 17.8079C207.724 17.8079 208.457 17.6827 208.939 17.1191C209.34 16.6996 209.715 16.0296 210.066 15.0027L210.78 15.1906L210.786 15.1968Z" fill="white"/>
<path d="M217.586 8.16508H217.542C216.916 9.7743 216.353 11.4086 215.764 12.9802H219.258L217.586 8.16508ZM219.471 18.6469V17.9769C220.729 17.7891 220.873 17.5574 220.56 16.6808C220.329 15.992 219.972 15.009 219.596 14.0009H215.432C215.157 14.7522 214.869 15.5725 214.618 16.4053C214.261 17.5324 214.368 17.7891 215.896 17.9769V18.6469H211.274V17.9769C212.633 17.8079 212.909 17.6013 213.616 15.7979L217.924 4.97794L218.845 4.72748C220.16 8.36545 221.481 12.1349 222.84 15.7353C223.528 17.5762 223.804 17.8267 225.144 17.9769V18.6469H219.471Z" fill="white"/>
<path d="M64.6725 32.4725C64.923 32.5977 65.4051 32.7041 65.9499 32.7041C66.9329 32.7041 68.6048 32.0968 68.6048 29.3354C68.6048 26.9936 67.2272 26.1546 65.7996 26.1546C65.3175 26.1546 65.0044 26.261 64.8791 26.3862C64.7351 26.5115 64.6725 26.7431 64.6725 27.1627V32.4787V32.4725ZM66.1628 25.4032C67.7532 25.4032 68.9429 25.6348 69.782 26.2172C70.7024 26.8872 71.2659 27.889 71.2659 29.2728C71.2659 32.0342 69.1934 33.3303 67.0394 33.5808C66.7263 33.6246 66.3882 33.6246 66.1377 33.6246L64.6725 33.2489V36.2858C64.6725 38.064 64.8604 38.1893 66.6825 38.3333V39.0033H60.471V38.3333C62.0802 38.1893 62.2681 38.039 62.2681 36.2858V28.1269C62.2681 26.3299 62.0802 26.2234 60.5962 26.0794V25.4094H66.1628V25.4032Z" fill="white"/>
<path d="M74.6347 31.8025C74.6347 35.5031 76.413 38.4773 79.1994 38.4773C81.3095 38.4773 83.0878 36.53 83.0878 32.6415C83.0878 28.3711 81.1843 25.9479 78.6296 25.9479C76.4505 25.9479 74.6347 28.0831 74.6347 31.8087M85.9118 32.0529C85.9118 36.5738 82.6871 39.3164 78.7986 39.3164C74.9102 39.3164 71.8107 36.3045 71.8107 32.2846C71.8107 28.6216 74.403 25.1089 79.0491 25.1089C82.7747 25.1089 85.9118 27.9141 85.9118 32.0529Z" fill="white"/>
<path d="M89.6374 32.4725C89.8879 32.5977 90.37 32.7041 90.9148 32.7041C91.8978 32.7041 93.5697 32.0968 93.5697 29.3354C93.5697 26.9936 92.1921 26.1546 90.7645 26.1546C90.2823 26.1546 89.9693 26.261 89.844 26.3862C89.7 26.5115 89.6374 26.7431 89.6374 27.1627V32.4787V32.4725ZM91.1214 25.4032C92.7118 25.4032 93.9015 25.6348 94.7406 26.2172C95.661 26.8872 96.2246 27.889 96.2246 29.2728C96.2246 32.0342 94.152 33.3303 91.998 33.5808C91.6849 33.6246 91.3468 33.6246 91.0963 33.6246L89.6311 33.2489V36.2858C89.6311 38.064 89.819 38.1893 91.6411 38.3333V39.0033H85.4296V38.3333C87.0388 38.1893 87.2267 38.039 87.2267 36.2858V28.1269C87.2267 26.3299 87.0388 26.2234 85.5549 26.0794V25.4094H91.1214V25.4032Z" fill="white"/>
<path d="M99.5995 31.8025C99.5995 35.5031 101.378 38.4773 104.164 38.4773C106.274 38.4773 108.053 36.53 108.053 32.6415C108.053 28.3711 106.149 25.9479 103.594 25.9479C101.415 25.9479 99.5995 28.0831 99.5995 31.8087M110.877 32.0529C110.877 36.5738 107.652 39.3164 103.763 39.3164C99.875 39.3164 96.7756 36.3045 96.7756 32.2846C96.7756 28.6216 99.3679 25.1089 104.014 25.1089C107.74 25.1089 110.877 27.9141 110.877 32.0529Z" fill="white"/>
<path d="M120.92 35.5469C120.751 36.3609 120.332 38.4147 120.144 38.997H110.225V38.327C112.022 38.183 112.21 38.0578 112.21 36.2795V28.1207C112.21 26.3424 112.041 26.2172 110.388 26.0732V25.4032H116.437V26.0732C114.828 26.2172 114.64 26.3236 114.64 28.1207V36.3421C114.64 37.369 114.721 37.7635 115.141 37.9513C115.516 38.1204 116.124 38.158 116.856 38.158C117.858 38.158 118.591 38.0327 119.073 37.4692C119.474 37.0497 119.849 36.3797 120.2 35.3528L120.914 35.5406L120.92 35.5469Z" fill="white"/>
<path d="M127.301 28.5214H127.257C126.631 30.1306 126.067 31.7649 125.479 33.3366H128.973L127.301 28.5214ZM129.185 39.0033V38.3333C130.444 38.1454 130.588 37.9138 130.275 37.0371C130.043 36.3484 129.686 35.3653 129.311 34.3572H125.147C124.871 35.1086 124.583 35.9288 124.333 36.7616C123.976 37.8887 124.082 38.1454 125.61 38.3333V39.0033H120.989V38.3333C122.348 38.1642 122.623 37.9576 123.331 36.1543L127.639 25.3343L128.559 25.0838C129.88 28.7218 131.195 32.4912 132.554 36.0916C133.243 37.9325 133.518 38.183 134.852 38.3333V39.0033H129.179H129.185Z" fill="white"/>
<path d="M139.041 32.3472C139.98 32.3472 140.675 32.2032 141.176 31.7837C141.909 31.1763 142.222 30.3373 142.222 29.254C142.222 26.9936 140.863 26.1796 139.542 26.1796C138.978 26.1796 138.665 26.261 138.515 26.3862C138.371 26.5115 138.327 26.7431 138.327 27.2253V32.3535H139.041V32.3472ZM146.824 39.1911C146.655 39.1911 146.423 39.1723 146.173 39.1723C143.913 39.0659 143.099 38.5211 142.197 37.1874C141.59 36.267 140.963 35.0773 140.356 34.0065C139.999 33.3992 139.642 33.1299 138.809 33.1299H138.327V36.292C138.327 38.0265 138.515 38.1955 140.124 38.3396V39.0095H134.12V38.3396C135.729 38.1955 135.942 38.0265 135.942 36.292V28.1082C135.942 26.3925 135.754 26.2234 134.207 26.0794V25.4094H139.811C141.546 25.4094 142.598 25.5973 143.412 26.1608C144.251 26.7244 144.814 27.6448 144.814 28.9409C144.814 30.7631 143.643 31.8087 142.178 32.4161C142.516 33.0673 143.33 34.4449 143.956 35.4091C144.689 36.5362 145.127 37.1686 145.591 37.6508C146.073 38.1768 146.467 38.4272 146.949 38.5712L146.824 39.1974V39.1911Z" fill="white"/>
<path d="M157.995 35.5907C157.87 36.4486 157.45 38.3709 157.262 39.0033H146.799V38.3333C148.621 38.1893 148.809 38.039 148.809 36.2858V28.1457C148.809 26.3048 148.621 26.1984 147.075 26.0732V25.4032H156.743C156.761 25.8227 156.868 27.2629 156.949 28.5026L156.235 28.6091C156.048 27.8139 155.797 27.2065 155.459 26.812C155.121 26.3925 154.557 26.2485 153.261 26.2485H152.028C151.295 26.2485 151.232 26.2923 151.232 26.9623V31.5458H152.842C154.683 31.5458 154.889 31.4205 155.165 29.9553H155.853V34.1005H155.165C154.895 32.6165 154.664 32.51 152.86 32.51H151.226V36.2357C151.226 37.2438 151.333 37.7447 151.727 37.9513C152.128 38.158 152.854 38.183 153.737 38.183C155.014 38.183 155.684 38.039 156.166 37.4942C156.567 37.0559 156.943 36.3672 157.294 35.4843L157.982 35.6095L157.995 35.5907Z" fill="white"/>
<path d="M167.932 36.1355C167.932 37.6633 168.389 38.1454 169.861 38.1454C173.079 38.1454 174.964 35.6346 174.964 32.0342C174.964 29.9804 174.294 28.2897 173.06 27.3255C172.184 26.549 171.031 26.1984 169.61 26.1984C168.796 26.1984 168.333 26.3236 168.164 26.4676C167.995 26.6367 167.932 26.9498 167.932 27.6385V36.1355ZM169.923 25.4032C172.559 25.4032 174.569 25.9291 175.909 27.2002C176.936 28.1833 177.731 29.6923 177.731 31.6585C177.731 34.1881 176.723 36.029 175.114 37.2626C173.567 38.4523 171.407 38.997 168.815 38.997H163.586V38.327C165.302 38.2018 165.49 38.0578 165.49 36.2795V28.1207C165.49 26.3236 165.302 26.2172 163.774 26.0732V25.4032H169.929H169.923Z" fill="white"/>
<path d="M177.224 39.0033V38.3333C178.833 38.1893 179.021 38.064 179.021 36.2858V28.1269C179.021 26.3487 178.833 26.2234 177.224 26.0794V25.4094H183.229V26.0794C181.62 26.2234 181.451 26.3487 181.451 28.1269V36.2858C181.451 38.064 181.62 38.1893 183.229 38.3333V39.0033H177.224Z" fill="white"/>
<path d="M194.362 32.3472C195.301 32.3472 195.996 32.2032 196.497 31.7837C197.23 31.1763 197.543 30.3373 197.543 29.254C197.543 26.9936 196.184 26.1796 194.863 26.1796C194.299 26.1796 193.986 26.261 193.836 26.3862C193.692 26.5115 193.648 26.7431 193.648 27.2253V32.3535H194.362V32.3472ZM202.145 39.1911C201.976 39.1911 201.744 39.1723 201.494 39.1723C199.234 39.0659 198.42 38.5211 197.518 37.1874C196.91 36.267 196.284 35.0773 195.677 34.0065C195.32 33.3992 194.963 33.1299 194.13 33.1299H193.648V36.292C193.648 38.0265 193.836 38.1955 195.445 38.3396V39.0095H189.44V38.3396C191.05 38.1955 191.263 38.0265 191.263 36.292V28.1082C191.263 26.3925 191.075 26.2234 189.528 26.0794V25.4094H195.132C196.867 25.4094 197.919 25.5973 198.733 26.1608C199.572 26.7244 200.135 27.6448 200.135 28.9409C200.135 30.7631 198.964 31.8087 197.499 32.4161C197.837 33.0673 198.651 34.4449 199.277 35.4091C200.01 36.5362 200.448 37.1686 200.912 37.6508C201.394 38.1768 201.788 38.4272 202.27 38.5712L202.145 39.1974V39.1911Z" fill="white"/>
<path d="M207.668 28.5214H207.624C206.998 30.1306 206.428 31.7649 205.846 33.3366H209.34L207.668 28.5214ZM209.553 39.0033V38.3333C210.811 38.1454 210.955 37.9138 210.642 37.0371C210.41 36.3484 210.054 35.3653 209.678 34.3572H205.514C205.245 35.1086 204.95 35.9288 204.7 36.7616C204.343 37.8887 204.449 38.1454 205.977 38.3333V39.0033H201.356V38.3333C202.715 38.1642 202.99 37.9576 203.698 36.1543L208.006 25.3343L208.926 25.0838C210.248 28.7218 211.563 32.4912 212.921 36.0916C213.61 37.9325 213.886 38.183 215.219 38.3333V39.0033H209.546H209.553Z" fill="white"/>
<path d="M227.317 33.2489C226.19 33.4367 226.083 33.5432 226.083 34.8832V36.58C226.083 37.3314 226.102 38.0014 226.227 38.565C224.95 38.8593 223.153 39.3163 221.481 39.3163C216.71 39.3163 213.61 36.5112 213.61 32.3472C213.61 27.5321 217.48 25.0838 221.794 25.0838C223.51 25.0838 225.119 25.5033 225.851 25.6912C225.914 26.405 226.02 27.5321 226.19 29.0599L225.476 29.2039C224.956 26.7995 223.403 25.8978 221.418 25.8978C218.657 25.8978 216.415 28.2021 216.415 32.0091C216.415 35.1274 218.049 38.4961 221.706 38.4961C222.226 38.4961 222.771 38.4147 223.109 38.2018C223.466 37.9952 223.654 37.6758 223.654 36.9683V35.0647C223.654 33.5808 223.528 33.4305 221.393 33.2426V32.5726H227.317V33.2426V33.2489Z" fill="white"/>
<path d="M241.436 26.0731C240.247 26.1545 239.74 26.5302 239.658 27.3067C239.552 27.9328 239.489 28.7531 239.489 30.3811V32.4537C239.489 34.7767 239.132 36.555 237.942 37.8073C236.978 38.7904 235.582 39.2913 234.117 39.2913C232.795 39.2913 231.524 38.997 230.56 38.2456C229.345 37.3064 228.782 35.7535 228.782 33.3052V28.2647C228.782 26.3424 228.594 26.2172 227.004 26.0669V25.3969H232.965V26.0669C231.393 26.1921 231.205 26.3361 231.205 28.2647V32.892C231.205 36.1167 232.395 37.9764 234.805 37.9764C237.485 37.9764 238.512 35.86 238.512 32.366V30.3811C238.512 28.7468 238.431 27.914 238.324 27.2816C238.218 26.5302 237.736 26.1733 236.296 26.0669V25.3969H241.443V26.0669L241.436 26.0731Z" fill="white"/>
<path d="M248.512 28.7093C248.111 27.3881 247.404 25.8853 245.663 25.8853C244.323 25.8853 243.509 26.8496 243.509 28.0205C243.509 29.3166 244.367 30.0054 246.145 30.9071C248.13 31.8901 249.808 32.9984 249.808 35.1775C249.808 37.5005 247.842 39.3226 244.868 39.3226C244.073 39.3226 243.359 39.1974 242.795 39.0283C242.232 38.8405 241.856 38.6902 241.606 38.5712C241.418 38.0703 241.142 36.3108 240.998 35.1399L241.712 34.9333C242.088 36.2544 243.221 38.5086 245.269 38.5086C246.671 38.5086 247.529 37.5882 247.529 36.1856C247.529 34.783 246.527 34.0692 244.955 33.2364C243.096 32.2971 241.38 31.1826 241.38 29.0537C241.38 26.8558 243.115 25.0963 246.001 25.0963C247.197 25.0963 248.28 25.4345 248.806 25.6223C248.894 26.3737 249.019 27.2566 249.207 28.5715L248.518 28.7155L248.512 28.7093Z" fill="white"/>
<path d="M255.775 28.5214H255.732C255.105 30.1306 254.536 31.7649 253.953 33.3366H257.447L255.775 28.5214ZM257.654 39.0033V38.3333C258.912 38.1454 259.056 37.9138 258.743 37.0371C258.512 36.3484 258.155 35.3653 257.779 34.3572H253.615C253.34 35.1086 253.052 35.9288 252.801 36.7616C252.444 37.8887 252.551 38.1454 254.079 38.3333V39.0033H249.458V38.3333C250.816 38.1642 251.092 37.9576 251.799 36.1543L256.107 25.3343L257.028 25.0838C258.349 28.7218 259.664 32.4912 261.023 36.0916C261.711 37.9325 261.987 38.183 263.321 38.3333V39.0033H257.648H257.654Z" fill="white"/>
</g>
<defs>
<clipPath id="clip0_15_1313">
<rect width="262.654" height="44" fill="white" transform="translate(0.673096)"/>
</clipPath>
</defs>
</svg>
