<svg width="25" height="25" viewBox="0 0 25 25" fill="none" xmlns="http://www.w3.org/2000/svg">
<path d="M11.2962 10.4975L14.7837 12.5L11.2962 14.5025V10.4975ZM18.7512 15.5C18.8637 14.7875 19.0137 13.7525 19.0437 12.5C18.9837 11.21 18.8412 10.2125 18.6987 9.5C18.5787 8.87 18.0462 8.42 17.4087 8.27C16.4637 8.0675 14.7237 7.925 12.8337 7.925C10.9437 7.925 9.18123 8.0675 8.23623 8.27C7.60623 8.4125 7.06623 8.84 6.94623 9.5C6.83373 10.2125 6.71373 11.21 6.71373 12.5C6.71373 13.79 6.83373 14.7875 6.96873 15.5C7.08123 16.13 7.62873 16.5875 8.25123 16.7225C9.24873 16.925 10.9662 17.0675 12.8487 17.0675C14.7312 17.0675 16.4487 16.925 17.4537 16.7225C18.0837 16.58 18.6237 16.1525 18.7362 15.5M12.8862 0.5C19.5162 0.5 24.8862 5.87 24.8862 12.5C24.8862 19.13 19.5162 24.5 12.8862 24.5C6.25623 24.5 0.88623 19.1225 0.88623 12.5C0.88623 5.8775 6.25623 0.5 12.8862 0.5Z" fill="white"/>
</svg>
